<svg width="49" height="58" viewBox="0 0 49 58" fill="none" xmlns="http://www.w3.org/2000/svg">
<path d="M48.014 22.3752H28.1493L10.7666 39.9177C7.81262 37.3679 5.64131 34.02 4.50789 30.2676C3.37447 26.5152 3.32606 22.5143 4.36835 18.7351C5.41063 14.9559 7.50029 11.5555 10.3917 8.93362C13.2831 6.31176 16.8561 4.5774 20.6906 3.93442C21.6193 3.78456 22.4652 3.30679 23.0774 2.58623C23.6896 1.86568 24.0284 0.949157 24.0334 0C19.1443 0.00287167 14.3721 1.50965 10.3532 4.31947C6.33424 7.12929 3.25943 11.1087 1.53866 15.7271C-0.182118 20.3455 -0.467095 25.3835 0.721714 30.1695C1.91052 34.9556 4.51664 39.2622 8.19263 42.5153L0.504146 50.2703L3.04051 52.8258L11.0842 44.6997L13.725 42.0388L29.6326 25.9891H44.3912C44.1532 28.7673 43.3605 31.4681 42.0607 33.9289C40.761 36.3897 38.9812 38.5595 36.8285 40.3077C34.6757 42.0559 32.1947 43.3462 29.5347 44.1011C26.8747 44.8559 24.0908 45.0595 21.3508 44.6997L32.7164 33.217H40.735V29.603H31.2414L28.1493 32.7236L17.2642 43.7087L14.4646 46.5257L5.6312 55.4445L8.16756 58L18.2503 47.8203C21.6532 48.6685 25.1986 48.7562 28.6386 48.0774C32.0786 47.3985 35.3301 45.9695 38.1657 43.8901C41.0013 41.8108 43.3526 39.1315 45.0552 36.0394C46.7577 32.9474 47.7704 29.5173 48.0223 25.9891C48.0641 25.424 48.085 24.8463 48.085 24.2644C48.085 23.6824 48.0516 22.9951 48.014 22.3752Z" fill="#1F1035"/>
</svg>
